<?xml version="1.0" standalone="no"?>
<!DOCTYPE svg PUBLIC "-//W3C//DTD SVG 20010904//EN"
 "http://www.w3.org/TR/2001/REC-SVG-20010904/DTD/svg10.dtd">
<svg version="1.0" xmlns="http://www.w3.org/2000/svg"
 width="2048.000000pt" height="2048.000000pt" viewBox="0 0 2048.000000 2048.000000"
 preserveAspectRatio="xMidYMid meet">
<metadata>
Created by potrace 1.11, written by Peter Selinger 2001-2013
</metadata>
<g transform="translate(0.000000,2048.000000) scale(0.100000,-0.100000)"
fill="#000000" stroke="none">
<path d="M5685 19320 c-185 -9 -345 -24 -499 -46 -66 -9 -111 -12 -115 -6 -4
5 -79 -5 -186 -25 -1404 -264 -2720 -847 -3748 -1661 -254 -200 -521 -452
-648 -609 -66 -82 -129 -199 -153 -284 -46 -160 -60 -471 -30 -649 61 -354
268 -660 637 -942 54 -41 83 -57 96 -53 10 3 79 81 152 173 355 443 691 779
1126 1125 355 283 824 596 1278 854 138 79 343 173 376 173 23 0 -21 -237 -82
-449 -114 -391 -253 -780 -414 -1161 -149 -351 -282 -676 -316 -773 -7 -21
-18 -42 -24 -46 -5 -4 -82 -18 -170 -30 -683 -98 -1020 -201 -1083 -332 -19
-39 -20 -52 -12 -109 35 -240 242 -705 452 -1012 62 -91 147 -178 173 -178 8
0 15 -5 15 -10 0 -6 -25 -85 -55 -177 -76 -226 -199 -636 -283 -943 -267 -970
-422 -1773 -398 -2068 30 -361 233 -639 588 -806 129 -61 299 -114 345 -107 3
0 8 54 10 118 14 483 99 950 241 1333 22 58 280 683 575 1390 656 1575 684
1641 696 1653 29 29 1121 237 1586 301 857 119 1695 133 2261 36 387 -66 652
-191 737 -348 40 -73 48 -135 36 -255 -23 -231 -81 -428 -241 -822 -159 -390
-299 -673 -531 -1075 -234 -404 -586 -940 -752 -1145 l-33 -40 -183 11 c-1255
81 -2157 9 -2776 -222 -230 -86 -396 -186 -528 -318 -99 -100 -144 -168 -181
-274 -133 -383 69 -734 565 -982 210 -105 454 -180 722 -221 203 -31 524 -31
724 -1 553 85 1122 347 1654 762 57 45 105 79 107 77 2 -2 -10 -58 -26 -124
-192 -789 -221 -1468 -89 -2111 55 -265 129 -482 249 -727 274 -558 706 -980
1292 -1259 435 -208 893 -316 1475 -348 943 -51 1805 235 2426 803 66 61 87
76 87 61 0 -23 -106 -337 -189 -560 -118 -315 -363 -917 -381 -936 -5 -5 -90
15 -204 48 -606 177 -959 234 -1294 208 -378 -30 -784 -200 -1014 -424 -158
-155 -255 -333 -309 -568 -26 -111 -37 -384 -19 -501 75 -518 472 -827 1165
-909 147 -18 438 -16 578 4 466 66 858 281 1252 687 133 137 273 306 383 460
l62 86 287 -73 c783 -200 1397 -323 2001 -399 936 -118 1884 -108 2732 31 810
133 1545 402 2095 767 179 119 304 218 321 254 l17 34 -57 83 c-202 298 -732
856 -912 962 -72 43 -102 37 -178 -33 -134 -123 -333 -249 -616 -392 -777
-393 -1678 -635 -2655 -713 -235 -18 -794 -16 -1045 5 -246 21 -561 58 -840
98 -261 37 -724 110 -728 114 -2 2 37 84 87 182 289 564 566 1131 734 1503 38
85 73 159 78 164 5 5 38 -19 77 -56 262 -247 574 -350 963 -319 511 41 920
227 1279 581 417 411 724 1020 934 1852 72 285 73 273 -31 287 -43 6 -63 5
-78 -5 -11 -8 -26 -14 -35 -14 -10 0 -44 -60 -95 -167 -347 -725 -803 -1296
-1287 -1610 -410 -268 -829 -318 -979 -119 -81 107 -111 313 -91 613 50 722
334 1650 927 3029 214 495 267 676 269 919 0 100 -4 144 -18 190 -89 293 -403
588 -881 830 -132 66 -300 133 -310 123 -3 -3 -12 -76 -20 -164 -54 -569 -130
-891 -475 -2004 -94 -304 -232 -778 -275 -950 -14 -54 -34 -120 -46 -146 -11
-27 -84 -218 -161 -424 -77 -206 -174 -458 -215 -560 -80 -198 -259 -572 -344
-723 -79 -139 -225 -358 -325 -487 -111 -144 -368 -402 -499 -501 -415 -315
-850 -478 -1415 -530 -179 -16 -548 -6 -722 21 -1064 161 -1872 848 -2053
1745 -115 569 21 1345 410 2340 238 608 567 1290 1210 2505 185 349 447 844
582 1100 l246 464 -7 77 c-28 336 -237 627 -641 891 -133 88 -396 223 -550
283 -55 21 -128 56 -163 77 -144 88 -398 203 -622 283 -58 21 -109 41 -113 45
-5 4 22 45 59 91 272 338 485 809 571 1269 25 135 25 499 -1 660 -125 793
-603 1407 -1401 1800 -422 207 -895 336 -1415 384 -201 19 -533 26 -735 16z
m1171 -1284 c285 -43 539 -119 753 -227 413 -208 660 -512 738 -906 23 -117
23 -370 -1 -508 -39 -230 -104 -431 -216 -660 -65 -134 -216 -374 -277 -442
l-28 -31 -135 23 c-428 75 -1048 107 -1658 87 -370 -13 -592 -28 -869 -62 -89
-11 -169 -20 -177 -20 -12 0 -8 16 18 73 197 425 229 504 252 639 24 140 15
346 -20 453 -109 334 -430 593 -1017 824 -237 93 -229 89 -229 98 1 9 322 147
640 276 559 226 1064 354 1570 397 149 12 535 4 656 -14z m112 -8065 c-6 -16
-180 -171 -304 -271 -508 -409 -1050 -627 -1631 -656 l-128 -7 -202 62 c-255
77 -406 131 -483 172 -50 26 -60 36 -60 58 0 172 534 366 1410 510 396 66 788
111 1120 130 208 12 282 12 278 2z m3977 -6362 c213 -18 456 -75 755 -178 236
-80 262 -91 256 -107 -12 -31 -151 -242 -216 -328 -360 -477 -759 -697 -1190
-656 -197 19 -357 75 -485 173 -185 140 -248 369 -169 618 67 212 267 376 540
444 170 42 308 52 509 34z"/>
</g>
</svg>
